<?xml version="1.0" encoding="utf-8"?>
<!-- Generator: Adobe Illustrator 19.0.0, SVG Export Plug-In . SVG Version: 6.00 Build 0)  -->
<svg version="1.1" id="Capa_1" xmlns="http://www.w3.org/2000/svg" xmlns:xlink="http://www.w3.org/1999/xlink" x="0px" y="0px"
	 viewBox="-73 165 464 464" style="enable-background:new -73 165 464 464;" xml:space="preserve">
<style type="text/css">
	.st0{fill:#D7EDFF;}
	.st1{fill:#83C1FF;}
</style>
<path class="st0" d="M298,327.5L228.5,258v46.3c0,12.7,10.4,23.2,23.2,23.2H298z"/>
<g>
	<path class="st1" d="M232.6,230.7c-0.6-0.6-1.2-0.6-1.7-1.2h-0.6c-0.6,0-1.2,0-1.7-0.6c0,0,0,0-0.6,0H43.1c-16.2,0-29,12.7-29,29
		V536c0,16.2,12.7,29,29,29h231.7c16.2,0,29-12.7,29-29V304.3c0,0,0,0,0-0.6c0-0.6,0-1.2-0.6-1.7v-0.6c0-0.6-0.6-1.2-1.2-1.7l0,0
		L232.6,230.7L232.6,230.7z M274.9,553.4H43.1c-9.8,0-17.4-7.5-17.4-17.4V258c0-9.8,7.5-17.4,17.4-17.4h179.6v40.6
		c0,16.2,12.7,29,29,29h40.6V536C292.2,545.9,284.7,553.4,274.9,553.4z M251.7,298.5c-9.8,0-17.4-7.5-17.4-17.4v-32.4l49.8,49.8
		H251.7z"/>
	<path class="st1" d="M135.8,286.9h46.3c3.5,0,5.8-2.3,5.8-5.8s-2.3-5.8-5.8-5.8h-46.3c-3.5,0-5.8,2.3-5.8,5.8
		S132.4,286.9,135.8,286.9z"/>
	<path class="st1" d="M66.3,333.3h69.5c3.5,0,5.8-2.3,5.8-5.8s-2.3-5.8-5.8-5.8H66.3c-3.5,0-5.8,2.3-5.8,5.8S62.8,333.3,66.3,333.3z
		"/>
	<path class="st1" d="M66.3,379.6h139c3.5,0,5.8-2.3,5.8-5.8s-2.3-5.8-5.8-5.8h-139c-3.5,0-5.8,2.3-5.8,5.8S62.8,379.6,66.3,379.6z"
		/>
	<path class="st1" d="M251.7,368h-23.2c-3.5,0-5.8,2.3-5.8,5.8s2.3,5.8,5.8,5.8h23.2c3.5,0,5.8-2.3,5.8-5.8S255.2,368,251.7,368z"/>
	<path class="st1" d="M66.3,426h115.9c3.5,0,5.8-2.3,5.8-5.8c0-3.5-2.3-5.8-5.8-5.8H66.3c-3.5,0-5.8,2.3-5.8,5.8
		C60.5,423.6,62.8,426,66.3,426z"/>
	<path class="st1" d="M251.7,414.4h-46.3c-3.5,0-5.8,2.3-5.8,5.8c0,3.5,2.3,5.8,5.8,5.8h46.3c3.5,0,5.8-2.3,5.8-5.8
		C257.5,416.7,255.2,414.4,251.7,414.4z"/>
	<path class="st1" d="M251.7,460.7H66.3c-3.5,0-5.8,2.3-5.8,5.8s2.3,5.8,5.8,5.8h185.4c3.5,0,5.8-2.3,5.8-5.8
		S255.2,460.7,251.7,460.7z"/>
	<path class="st1" d="M89.5,507.1H66.3c-3.5,0-5.8,2.3-5.8,5.8c0,3.5,2.3,5.8,5.8,5.8h23.2c3.5,0,5.8-2.3,5.8-5.8
		C95.3,509.4,93,507.1,89.5,507.1z"/>
	<path class="st1" d="M251.7,507.1h-139c-3.5,0-5.8,2.3-5.8,5.8c0,3.5,2.3,5.8,5.8,5.8h139c3.5,0,5.8-2.3,5.8-5.8
		C257.5,509.4,255.2,507.1,251.7,507.1z"/>
	<path class="st1" d="M66.3,402.8h46.3c3.5,0,5.8-2.3,5.8-5.8s-2.3-5.8-5.8-5.8H66.3c-3.5,0-5.8,2.3-5.8,5.8S62.8,402.8,66.3,402.8z
		"/>
	<path class="st1" d="M251.7,391.2H135.8c-3.5,0-5.8,2.3-5.8,5.8s2.3,5.8,5.8,5.8h115.9c3.5,0,5.8-2.3,5.8-5.8
		S255.2,391.2,251.7,391.2z"/>
	<path class="st1" d="M66.3,449.1h139c3.5,0,5.8-2.3,5.8-5.8c0-3.5-2.3-5.8-5.8-5.8h-139c-3.5,0-5.8,2.3-5.8,5.8
		C60.5,446.8,62.8,449.1,66.3,449.1z"/>
	<path class="st1" d="M66.3,495.5h115.9c3.5,0,5.8-2.3,5.8-5.8c0-3.5-2.3-5.8-5.8-5.8H66.3c-3.5,0-5.8,2.3-5.8,5.8
		C60.5,493.2,62.8,495.5,66.3,495.5z"/>
	<path class="st1" d="M251.7,483.9h-46.3c-3.5,0-5.8,2.3-5.8,5.8c0,3.5,2.3,5.8,5.8,5.8h46.3c3.5,0,5.8-2.3,5.8-5.8
		C257.5,486.2,255.2,483.9,251.7,483.9z"/>
</g>
</svg>
