<?xml version="1.0" encoding="utf-8"?>
<!-- Generator: Adobe Illustrator 19.0.0, SVG Export Plug-In . SVG Version: 6.00 Build 0)  -->
<svg version="1.1" id="Capa_1" xmlns="http://www.w3.org/2000/svg" xmlns:xlink="http://www.w3.org/1999/xlink" x="0px" y="0px"
	 viewBox="-73 165 464 464" style="enable-background:new -73 165 464 464;" xml:space="preserve">
<style type="text/css">
	.st0{fill:#D7EDFF;}
	.st1{fill:#83C1FF;}
</style>
<g>
	<g>
		<rect x="50.1" y="353.5" class="st0" width="43.5" height="174.2"/>
		<rect x="137.2" y="353.5" class="st0" width="43.5" height="174.2"/>
		<rect x="224.3" y="353.5" class="st0" width="43.5" height="174.2"/>
	</g>
	<g>
		<path class="st1" d="M313,282.7l-152.4-43.5c-1.1,0-2.2,0-3.3,0L5,282.7c-2.2,1.1-3.8,3.3-3.8,5.4V299c0,9.3,7.1,16.3,16.3,16.3
			h5.4v5.4c0,9.3,7.1,16.3,16.3,16.3h5.4v163.3h-5.4c-9.3,0-16.3,7.1-16.3,16.3v5.4h-5.4c-9.3,0-16.3,7.1-16.3,16.3v10.9
			c0,3.3,2.2,5.4,5.4,5.4h304.8c3.3,0,5.4-2.2,5.4-5.4v-10.9c0-9.3-7.1-16.3-16.3-16.3h-5.4v-5.4c0-9.3-7.1-16.3-16.3-16.3h-5.4
			V337.1h5.4c9.3,0,16.3-7.1,16.3-16.3v-5.4h5.4c9.3,0,16.3-7.1,16.3-16.3v-10.9C316.9,286,315.2,283.8,313,282.7z M55.6,337.1h32.7
			v163.3H55.6V337.1z M131.8,337.1V348H99.1v-10.9H131.8z M218.9,337.1V348h-32.7v-10.9H218.9z M186.2,500.4V358.9h32.7v141.5H186.2
			z M175.3,500.4h-32.7V337.1h32.7V500.4z M99.1,500.4V358.9h32.7v141.5H99.1z M306,538.5v5.4H12v-5.4c0-3.3,2.2-5.4,5.4-5.4h10.9
			h261.3h10.9C303.8,533.1,306,535.3,306,538.5z M284.2,516.8v5.4H33.8v-5.4c0-3.3,2.2-5.4,5.4-5.4h10.9h43.5h43.5h43.5h43.5h43.5
			h10.9C282,511.3,284.2,513.5,284.2,516.8z M262.4,500.4h-32.7V337.1h32.7V500.4z M284.2,320.8c0,3.3-2.2,5.4-5.4,5.4h-10.9h-43.5
			h-43.5h-43.5H93.7H50.1H39.2c-3.3,0-5.4-2.2-5.4-5.4v-5.4h250.4V320.8z M306,299c0,3.3-2.2,5.4-5.4,5.4h-10.9H28.4H17.5
			c-3.3,0-5.4-2.2-5.4-5.4v-6.5L159,250l147,41.9V299z"/>
		<path class="st1" d="M71.9,348c-3.3,0-5.4,2.2-5.4,5.4v65.3c0,3.3,2.2,5.4,5.4,5.4s5.4-2.2,5.4-5.4v-65.3
			C77.3,350.2,75.2,348,71.9,348z"/>
		<path class="st1" d="M71.9,435.1c-3.3,0-5.4,2.2-5.4,5.4v43.5c0,3.3,2.2,5.4,5.4,5.4s5.4-2.2,5.4-5.4v-43.5
			C77.3,437.3,75.2,435.1,71.9,435.1z"/>
		<path class="st1" d="M159,489.5c3.3,0,5.4-2.2,5.4-5.4V397c0-3.3-2.2-5.4-5.4-5.4s-5.4,2.2-5.4,5.4v87.1
			C153.6,487.4,155.7,489.5,159,489.5z"/>
		<path class="st1" d="M159,380.7c3.3,0,5.4-2.2,5.4-5.4v-21.8c0-3.3-2.2-5.4-5.4-5.4s-5.4,2.2-5.4,5.4v21.8
			C153.6,378.5,155.7,380.7,159,380.7z"/>
		<path class="st1" d="M246.1,489.5c3.3,0,5.4-2.2,5.4-5.4V353.5c0-3.3-2.2-5.4-5.4-5.4c-3.3,0-5.4,2.2-5.4,5.4v130.6
			C240.7,487.4,242.8,489.5,246.1,489.5z"/>
		<path class="st1" d="M142.7,277.2c0,9.3,7.1,16.3,16.3,16.3s16.3-7.1,16.3-16.3c0-9.3-7.1-16.3-16.3-16.3S142.7,268,142.7,277.2z
			 M164.4,277.2c0,3.3-2.2,5.4-5.4,5.4s-5.4-2.2-5.4-5.4c0-3.3,2.2-5.4,5.4-5.4S164.4,274,164.4,277.2z"/>
	</g>
</g>
</svg>
